
<svg width="175px" height="72px" viewBox="0 0 175 72" version="1.1" xmlns="http://www.w3.org/2000/svg" xmlns:xlink="http://www.w3.org/1999/xlink">
    <defs>
        <polygon id="path-1" points="0 0.350133929 87.5599447 0.350133929 87.5599447 62 0 62"></polygon>
        <polygon id="path-3" points="0.309423313 0.319078571 89.8768712 0.319078571 89.8768712 30.6022036 0.309423313 30.6022036"></polygon>
    </defs>
    <g id="Page-1" stroke="none" stroke-width="1" fill="none" fill-rule="evenodd">
        <g id="Home" transform="translate(-37.000000, -33.000000)">
            <g id="Nav" transform="translate(0.000000, 27.000000)">
                <g id="Initials" transform="translate(37.000000, 6.000000)">
                    <g id="Group-3" transform="translate(0.000000, 10.000000)">
                        <mask id="mask-2" fill="white">
                            <use xlink:href="#path-1"></use>
                        </mask>
                        <g id="Clip-2"></g>
                        <path d="M54.8161962,46.0164554 C53.3058063,48.8900446 51.8485484,51.3567589 50.4449761,53.4160446 C49.0414038,55.4753304 47.6649509,57.0668482 46.3145107,58.1894911 C44.9646239,59.3126875 43.5942591,59.8740089 42.2039698,59.8740089 C41.4020075,59.8740089 40.820322,59.6392946 40.4594667,59.1726339 C40.0986113,58.7043125 39.9181836,58.1225089 39.9181836,57.4272232 C39.9181836,56.2774554 40.333278,54.8603125 41.1612528,53.1763482 C41.9903346,51.4912768 43.1802717,49.7259375 44.7305107,47.8808839 C46.2813031,46.0358304 48.1730264,44.1974196 50.405127,42.3656518 C52.6372277,40.5344375 55.143844,38.8692946 57.9238692,37.3724375 L59.6484478,36.4496339 C57.9377057,39.9526339 56.3265862,43.1412054 54.8161962,46.0164554 M74.5464604,14.3089911 C75.6827119,11.8760446 76.812322,9.52945536 77.9352906,7.26922321 C79.0582591,5.01009821 80.1408252,2.93088393 81.1835421,1.03213393 L79.8198189,0.350133929 C79.4545358,0.884330357 79.1036428,1.40136607 78.7571774,1.91397321 C78.3863597,2.37841964 78.0050264,2.8384375 77.6048755,3.28129464 C73.7301082,7.57202679 68.5397686,10.7240625 62.9907874,12.1555982 C55.5080201,14.0859018 47.5072151,13.0269196 39.7693031,12.0039196 C38.9922465,11.9009554 38.2162969,11.7985446 37.4420075,11.6989018 C29.1401208,10.6310625 19.5824352,9.81897321 11.2268629,13.7255268 C6.99013333,15.7062054 3.43637233,18.7386696 -5.5345912e-05,21.6709375 L1.29337862,23.1871696 C4.62907673,20.3407054 8.07823396,17.3973661 12.0708881,15.5312768 C19.9427371,11.8500268 29.163366,12.6432946 37.1879698,13.6751518 C37.9594918,13.7742411 38.7332277,13.8766518 39.5080704,13.9790625 C47.4347119,15.0275268 55.6303346,16.1119732 63.4883472,14.0853482 C67.2546365,13.1132768 70.8604226,11.3949911 74.0522214,9.09822321 C73.1915925,10.4627768 72.3907371,11.7620089 71.6590642,12.9854018 C70.6025107,14.7501875 69.6538818,16.4014911 68.8120704,17.9387589 C67.9697057,19.4765804 67.1611019,21.0072054 66.3857057,22.5311875 C65.609756,24.0557232 64.8476428,25.6068304 64.0999195,27.1839554 C63.3516428,28.7616339 62.535844,30.4588839 61.6536302,32.2784732 C57.8580075,34.0964018 54.4691774,36.0017946 51.4876931,37.9940982 C48.5073157,39.9852946 45.9940579,42.0312946 43.948473,44.1309911 C41.9028881,46.2295804 40.339366,48.3757768 39.2562465,50.5684732 C38.1736805,52.7611696 37.6323975,54.9804375 37.6323975,57.2268304 C37.6323975,58.0820982 37.7596931,58.8111518 38.0131774,59.4128839 C38.2677686,60.0146161 38.6086994,60.5023125 39.0359698,60.8770804 C39.4637937,61.2512946 39.9381082,61.5319554 40.4594667,61.7190625 C40.9808252,61.9061696 41.5221082,62.0002768 42.0838692,62.0002768 C43.4741585,62.0002768 44.9851019,61.5253125 46.6155925,60.5759375 C48.246083,59.6271161 49.897605,58.3295446 51.5679447,56.6848839 C53.2388377,55.0407768 54.8765233,53.1093661 56.4804478,50.8895446 C58.0843723,48.6697232 59.5554667,46.2899196 60.8920704,43.7495804 C61.6674667,42.2521696 62.4954415,40.5742946 63.3782088,38.7159554 C64.2604226,36.8570625 65.1824855,34.8714018 66.1449509,32.7595268 C68.7915925,31.1812946 71.1775547,29.6445804 73.3033912,28.1471696 C75.4286742,26.6497589 77.3464101,25.1385089 79.0582591,23.6145268 C80.7690013,22.0899911 82.3125987,20.5195089 83.689605,18.9014196 C85.0666113,17.2838839 86.3567245,15.5661518 87.5599447,13.7471161 L86.1159698,12.6239196 C85.260322,13.9613482 84.2978566,15.3115089 83.2285736,16.6755089 C82.1592906,18.0389554 80.9029384,19.4095982 79.4589635,20.7863304 C78.0149887,22.1641696 76.3374541,23.5480982 74.4263597,24.9381161 C72.5147119,26.3286875 70.3019824,27.7187054 67.789278,29.1098304 C68.885127,26.7029018 70.0014541,24.2428304 71.1377057,21.7290625 C72.2739572,19.2158482 73.4096553,16.7424911 74.5464604,14.3089911" id="Fill-1" fill="#C92BBA" mask="url(#mask-2)"></path>
                    </g>
                    <path d="M82.4684424,7 C83.0561668,7 83.6850029,6.73973048 84.3566879,6.21805488 C85.0277939,5.69694756 85.6427331,5.03774963 86.2026636,4.24159766 C86.7336422,3.47272284 87,2.74533203 87,2.05885696 C87,1.56502679 86.7967574,1.09847378 86.3914302,0.659197922 C85.985524,0.219922065 85.4748118,0 84.8598726,0 C84.328315,0 83.8245512,0.19264491 83.3491604,0.576798182 C82.8737695,0.961519727 82.4614939,1.42750447 82.1117545,1.97645722 C81.7620151,2.52597824 81.4892878,3.10277642 81.2935727,3.70628349 C81.0978576,4.31035882 81,4.83203442 81,5.270742 C81,5.73786329 81.1262305,6.14247443 81.3775333,6.48514369 C81.6294152,6.8289495 81.9924725,7 82.4684424,7" id="Fill-4" fill="#C92BBA"></path>
                    <g id="Group-8" transform="translate(85.000000, 9.000000)">
                        <mask id="mask-4" fill="white">
                            <use xlink:href="#path-3"></use>
                        </mask>
                        <g id="Clip-7"></g>
                        <path d="M89.6208957,16.0676321 C80.6429816,17.2373286 70.3012638,17.8279893 61.654638,13.3329893 C60.1671534,12.5590964 58.7139018,11.6213464 57.3092393,10.7140429 C56.2866626,10.0536321 55.2293006,9.370525 54.1493006,8.74388214 C51.7877669,7.37268571 49.2782577,6.2434 46.6886871,5.38647143 C42.9142086,4.13706071 35.7451288,2.59425714 30.1430429,6.29820357 C27.0714479,8.32925714 25.1289939,11.4979 23.6337791,14.3294179 C23.2522454,14.9344714 22.8889325,15.6380607 22.4328589,16.3831679 C21.8194233,17.3856857 21.1529816,18.4358107 20.4329816,19.5318821 C19.7129816,20.6285071 18.9587485,21.70465 18.1730429,22.7608643 C17.385681,23.8176321 16.5723681,24.7598107 15.7325521,25.5885071 C14.8916319,26.4177571 14.0380123,27.0925607 13.1716933,27.614025 C12.3048221,28.1354893 11.4313252,28.3962214 10.5512025,28.3962214 C10.2839632,28.3962214 10.0106503,28.36965 9.7312638,28.3159536 C9.45132515,28.2628107 9.19071166,28.1554179 8.95052761,27.9948821 C8.71089571,27.8343464 8.51709202,27.6007393 8.37077301,27.2929536 C8.22390184,26.986275 8.15046626,26.5777393 8.15046626,26.0695607 C8.15046626,25.4014 8.24377914,24.7061143 8.43095706,23.9842571 C8.61703067,23.2624 8.86384049,22.5399893 9.17083436,21.8181321 C9.47727607,21.0957214 9.82402454,20.3810607 10.2110798,19.6719357 C10.5975828,18.9639179 10.9912638,18.2619893 11.3910184,17.5667036 C12.0574601,16.4169357 12.6112638,15.4072214 13.0513252,14.5381143 C13.4919387,13.6690071 13.838135,12.9133821 14.0915706,12.2717929 C14.3450061,11.6302036 14.5250061,11.0821679 14.6321227,10.6271321 C14.738135,10.1732036 14.7922454,9.78459643 14.7922454,9.46407857 C14.7922454,9.14300714 14.7580123,8.88282857 14.6917546,8.68188214 C14.6249448,8.48148929 14.4515706,8.2274 14.172184,7.91961429 C13.8916933,7.61293571 13.4450061,7.19775714 12.8315706,6.67629286 C12.2175828,6.15482857 11.3777669,5.41304286 10.3110184,4.45038214 C10.0172761,4.20957857 9.82402454,3.94884643 9.7312638,3.66818571 C9.63739877,3.387525 9.5910184,3.10022143 9.5910184,2.80572143 C9.5910184,2.40438214 9.65120245,2.03072143 9.7710184,1.682525 C9.8913865,1.33543571 9.97752147,1.08079286 10.0310798,0.920810714 L8.8710184,0.319078571 L0.309423313,13.7559179 L1.74942331,14.8791143 C2.41586503,13.7559179 3.10991411,12.6127929 3.82991411,11.4497393 C4.55046626,10.2861321 5.21635583,9.23711429 5.83034356,8.301025 C6.52384049,7.20495357 7.20353374,6.12161429 7.87052761,5.05211429 C8.11071166,5.4529 8.41107975,5.7939 8.77052761,6.07456071 C9.13107975,6.355775 9.47727607,6.62315 9.81077301,6.87668571 C10.1442699,7.13132857 10.4242086,7.39206071 10.6516933,7.65943571 C10.8775215,7.92681071 10.9912638,8.23459643 10.9912638,8.58168571 C10.9912638,9.06273929 10.8311411,9.63845357 10.5114479,10.3066143 C10.1912025,10.9753286 9.68433129,11.8643643 8.99083436,12.9737214 C8.29733742,14.0836321 7.60384049,15.307025 6.91034356,16.6439 C6.21629448,17.9813286 5.61058896,19.3652571 5.08991411,20.7951321 C4.57034356,22.2261143 4.30973006,23.5967571 4.30973006,24.9065071 C4.30973006,25.8691679 4.45660123,26.7050607 4.75034356,27.4136321 C5.0429816,28.1227571 5.44328834,28.7172929 5.95015951,29.1983464 C6.45703067,29.6794 7.04341104,30.0336857 7.71040491,30.2612036 C8.37684663,30.4881679 9.08414724,30.6022036 9.83120245,30.6022036 C11.1911411,30.6022036 12.4710184,30.2949714 13.6713865,29.6794 C14.8717546,29.0643821 15.9854356,28.2760964 17.0124294,27.3128821 C18.038319,26.350775 18.9858037,25.2674357 19.853227,24.0639714 C20.719546,22.8610607 21.5129816,21.677525 22.2329816,20.5144714 C22.9535337,19.3514179 23.5862945,18.2686321 24.1334724,17.2655607 C24.5807117,16.4446143 25.0412025,15.8046857 25.3907117,15.2616321 C26.7677669,12.6532036 28.5396074,9.74584643 31.2379509,7.96168571 C36.139362,4.72163214 42.6320613,6.14320357 46.065865,7.27857857 C48.525681,8.09288214 50.9104049,9.16570357 53.153227,10.4682571 C54.1923681,11.07165 55.2298528,11.7414714 56.2331043,12.38915 C57.6769693,13.3213643 59.1694233,14.2851321 60.7391779,15.10165 C66.289362,17.9874179 72.4242699,18.89915 78.4675215,18.89915 C82.3700982,18.89915 86.2345767,18.5188464 89.877092,18.0438821 L89.6208957,16.0676321 Z" id="Fill-6" fill="#C92BBA" mask="url(#mask-4)"></path>
                    </g>
                </g>
            </g>
        </g>
    </g>
</svg>